<?xml version="1.0" encoding="UTF-8"?>
<svg width="23px" height="13px" viewBox="0 0 23 13" version="1.1" xmlns="http://www.w3.org/2000/svg" xmlns:xlink="http://www.w3.org/1999/xlink">
    <!-- Generator: Sketch 48.2 (47327) - http://www.bohemiancoding.com/sketch -->
    <title>icon</title>
    <desc>Created with Sketch.</desc>
    <defs></defs>
    <g id="template/comment-form-open" stroke="none" stroke-width="1" fill="none" fill-rule="evenodd" transform="translate(-623.000000, -163.000000)">
        <g id="submit" transform="translate(568.000000, 140.000000)" fill="#FFFFFF">
            <path d="M61.484,31.616 C62.0280027,31.616 62.499998,31.416002 62.9,31.016 C63.300002,30.615998 63.5,30.1440027 63.5,29.6 C63.5,29.0559973 63.300002,28.584002 62.9,28.184 C62.499998,27.783998 62.0280027,27.584 61.484,27.584 C60.9399973,27.584 60.4760019,27.783998 60.092,28.184 C59.7079981,28.584002 59.516,29.0559973 59.516,29.6 C59.516,30.1440027 59.7079981,30.615998 60.092,31.016 C60.4760019,31.416002 60.9399973,31.616 61.484,31.616 Z M67.148,27.584 L77.516,27.584 L77.516,31.616 L75.5,31.616 L75.5,35.6 L71.516,35.6 L71.516,31.616 L67.148,31.616 C66.747998,32.8000059 66.0280052,33.7599963 64.988,34.496 C63.9479948,35.2320037 62.7800065,35.6 61.484,35.6 C60.3959946,35.6 59.3920046,35.3320027 58.472,34.796 C57.5519954,34.2599973 56.8240027,33.5320046 56.288,32.612 C55.7519973,31.6919954 55.484,30.6880054 55.484,29.6 C55.484,28.5119946 55.7519973,27.5080046 56.288,26.588 C56.8240027,25.6679954 57.5519954,24.9400027 58.472,24.404 C59.3920046,23.8679973 60.3959946,23.6 61.484,23.6 C62.7800065,23.6 63.9479948,23.9679963 64.988,24.704 C66.0280052,25.4400037 66.747998,26.3999941 67.148,27.584 Z" id="icon"></path>
        </g>
    </g>
</svg>